<svg width="64" height="64" viewBox="0 0 64 64" fill="none" xmlns="http://www.w3.org/2000/svg">
<path d="M14 38H50M14 38C9.58172 38 6 34.4183 6 30M14 38C9.58172 38 6 41.5817 6 46C6 50.4183 9.58172 54 14 54H50C54.4183 54 58 50.4183 58 46C58 41.5817 54.4183 38 50 38M6 30C6 25.5817 9.58172 22 14 22H50C54.4183 22 58 25.5817 58 30M6 30C6 27.4036 6.84213 24.8772 8.4 22.8L15.3 13.6C16.9997 11.3337 19.6672 10 22.5 10H41.5C44.3328 10 47.0003 11.3337 48.7 13.6L55.6 22.8C57.1579 24.8772 58 27.4036 58 30M58 30C58 34.4183 54.4183 38 50 38M50 46H50.02V46.02H50V46ZM50 30H50.02V30.02H50V30ZM42 46H42.02V46.02H42V46ZM42 30H42.02V30.02H42V30Z" stroke="currentColor" stroke-width="3" stroke-linecap="round" stroke-linejoin="round"/>
</svg>
