<svg width="64" height="64" viewBox="0 0 64 64" fill="none" xmlns="http://www.w3.org/2000/svg">
<path d="M41.5745 38.3189C41.8528 39.5008 42 40.7332 42 42C42 50.8366 34.8366 58 26 58V45.2009M41.5745 38.3189C51.5317 31.043 58.0001 19.2766 58.0001 6C44.7239 6.00056 32.9586 12.469 25.6833 22.426M41.5745 38.3189C37.0183 41.6483 31.7317 44.0374 26 45.2009M25.6833 22.426C24.5007 22.1474 23.2676 22 22 22C13.1634 22 6 29.1634 6 38H18.8019M25.6833 22.426C22.3543 26.9821 19.9654 32.2685 18.8019 38M26 45.2009C25.7242 45.2568 25.4475 45.31 25.1697 45.3602C22.7512 43.4426 20.5598 41.2511 18.6421 38.8327C18.6925 38.5541 18.7458 38.2765 18.8019 38M12.8318 44.3753C9.89903 46.5631 8 50.0598 8 54C8 54.6316 8.0488 55.2519 8.14284 55.8572C8.74812 55.9512 9.36836 56 10 56C13.9402 56 17.4369 54.101 19.6247 51.1682M44 24C44 26.2091 42.2091 28 40 28C37.7909 28 36 26.2091 36 24C36 21.7909 37.7909 20 40 20C42.2091 20 44 21.7909 44 24Z" stroke="currentColor" stroke-width="3" stroke-linecap="round" stroke-linejoin="round"/>
</svg>
