<svg width="18" height="16" viewBox="0 0 18 16" fill="none" xmlns="http://www.w3.org/2000/svg">
<path d="M16.3125 8H13.5V5.71429C13.5 4.46429 14.4844 3.42857 15.75 3.42857H16.0312C16.4883 3.42857 16.875 3.07143 16.875 2.57143V0.857143C16.875 0.392857 16.4883 0 16.0312 0H15.75C12.6211 0 10.125 2.57143 10.125 5.71429V14.2857C10.125 15.25 10.8633 16 11.8125 16H16.3125C17.2266 16 18 15.25 18 14.2857V9.71429C18 8.78571 17.2266 8 16.3125 8ZM6.1875 8H3.375V5.71429C3.375 4.46429 4.35937 3.42857 5.625 3.42857H5.90625C6.36328 3.42857 6.75 3.07143 6.75 2.57143V0.857143C6.75 0.392857 6.36328 0 5.90625 0H5.625C2.49609 0 0 2.57143 0 5.71429V14.2857C0 15.25 0.738281 16 1.6875 16H6.1875C7.10156 16 7.875 15.25 7.875 14.2857V9.71429C7.875 8.78571 7.10156 8 6.1875 8Z" fill="currentColor"/>
</svg>
